<?xml version="1.0" standalone="no"?>
<!DOCTYPE svg PUBLIC "-//W3C//DTD SVG 20010904//EN"
 "http://www.w3.org/TR/2001/REC-SVG-20010904/DTD/svg10.dtd">
<svg version="1.0" xmlns="http://www.w3.org/2000/svg"
 width="631.000000pt" height="631.000000pt" viewBox="0 0 631.000000 631.000000"
 preserveAspectRatio="xMidYMid meet">
<metadata>
Created by potrace 1.16, written by Peter Selinger 2001-2019
</metadata>
<g transform="translate(0.000000,631.000000) scale(0.100000,-0.100000)"
fill="#000000" stroke="none">
<path d="M0 3155 l0 -3155 3155 0 3155 0 0 3155 0 3155 -3155 0 -3155 0 0
-3155z m3351 2414 c759 -60 1465 -503 1874 -1175 138 -226 248 -509 299 -769
8 -44 21 -105 27 -135 16 -82 23 -467 11 -600 -76 -801 -552 -1518 -1270
-1913 -162 -89 -316 -152 -496 -203 -91 -26 -111 -30 -251 -58 -246 -47 -552
-48 -853 -1 -40 6 -123 26 -252 62 -716 196 -1336 760 -1608 1465 -76 196
-131 424 -152 625 -12 114 -12 413 0 528 23 222 86 469 172 675 268 646 802
1148 1475 1384 104 37 344 93 448 105 50 6 101 13 115 15 57 8 335 5 461 -5z"/>
<path d="M2949 5456 c-2 -2 -53 -9 -114 -16 -339 -36 -705 -172 -1010 -375
-480 -320 -819 -802 -964 -1369 -47 -184 -64 -326 -65 -541 -1 -233 11 -367
48 -520 2 -11 9 -42 15 -68 17 -72 73 -240 115 -342 73 -177 188 -369 322
-540 60 -77 271 -293 344 -352 19 -15 40 -33 47 -39 22 -21 239 -163 298 -195
110 -59 209 -106 285 -134 41 -15 91 -33 110 -40 96 -36 305 -84 455 -104 103
-14 467 -14 570 0 295 40 601 137 807 256 31 18 59 33 63 33 11 0 256 164 300
201 89 74 302 290 369 374 189 237 319 486 410 788 19 62 39 139 45 172 7 33
19 98 28 145 21 112 25 551 5 655 -36 186 -44 225 -63 295 -26 94 -56 186 -73
225 -8 17 -17 41 -21 55 -17 54 -142 290 -201 380 -306 460 -732 784 -1249
949 -221 71 -483 111 -729 111 -79 0 -145 -2 -147 -4z m818 -510 c450 -127
694 -318 768 -602 44 -169 23 -364 -64 -604 -21 -57 -26 -82 -18 -85 7 -2 30
-9 52 -15 87 -26 202 -73 233 -96 l32 -25 0 -95 c0 -115 -19 -197 -120 -509
-77 -238 -118 -401 -145 -575 -17 -109 -33 -403 -32 -604 l1 -219 -48 0 c-26
0 -48 2 -49 4 -1 2 0 83 3 179 3 96 4 176 4 178 -1 2 -12 -14 -25 -35 -60 -97
-169 -185 -287 -230 -59 -23 -82 -26 -197 -27 -143 0 -200 12 -310 66 -115 56
-198 130 -274 243 -42 63 -51 87 -85 229 -24 99 -46 166 -57 177 -42 42 -118
31 -143 -20 -13 -27 -38 -107 -76 -246 -65 -239 -203 -384 -410 -431 -53 -12
-108 -15 -218 -12 -147 3 -147 3 -226 41 -63 30 -97 55 -159 119 l-80 80 6
-128 c4 -71 9 -141 13 -156 6 -28 6 -28 -44 -28 -40 0 -52 4 -56 18 -2 9 -10
103 -16 207 -19 310 -22 333 -70 432 -122 254 -187 448 -215 632 l-16 104 46
56 c101 125 136 171 128 171 -4 -1 -35 -7 -68 -15 -145 -35 -264 -9 -351 79
-72 72 -94 135 -94 269 0 115 16 190 59 284 61 129 187 262 311 327 l70 37 34
-35 c38 -41 48 -43 116 -17 42 16 191 108 240 148 8 7 46 35 85 63 38 28 72
55 75 58 7 9 51 44 252 194 243 183 428 293 564 334 78 24 267 24 378 -1 180
-40 350 -141 448 -265 33 -41 44 -50 46 -36 10 49 -70 190 -189 336 -43 53
-79 99 -79 102 0 7 146 -25 257 -56z"/>
<path d="M4231 4437 c-23 -161 -60 -271 -88 -265 -11 2 -16 20 -19 63 -7 120
-15 166 -27 162 -7 -2 -38 -52 -69 -113 -59 -111 -105 -164 -144 -164 -24 0
-33 28 -35 109 -1 25 -4 57 -8 69 -7 25 -7 25 -151 -175 -25 -33 -53 -66 -62
-72 -15 -9 -17 -4 -23 47 -9 83 -12 88 -34 61 -54 -71 -209 -354 -199 -364 8
-8 55 16 228 116 74 42 147 81 163 84 25 7 29 4 48 -41 11 -27 27 -66 36 -86
9 -21 22 -38 29 -38 6 0 48 39 92 87 71 78 82 86 97 73 23 -19 52 -78 60 -123
4 -20 13 -37 20 -37 22 0 113 108 145 173 46 93 56 167 42 294 -8 75 -19 121
-38 159 -43 87 -49 85 -63 -19z"/>
<path d="M3400 3580 c-30 -5 -98 -14 -150 -21 -64 -9 -234 -13 -525 -14 -459
-1 -493 -4 -588 -52 -102 -51 -185 -155 -251 -315 -55 -133 -111 -374 -123
-532 -6 -65 -5 -69 13 -62 21 8 79 19 219 41 115 17 419 17 550 0 55 -8 172
-33 260 -55 133 -35 179 -42 273 -45 109 -3 221 14 302 46 14 5 34 11 45 13
11 3 43 10 70 16 214 52 505 59 735 19 131 -23 134 -23 125 -1 -7 18 -22 78
-50 202 -42 183 -133 405 -215 524 -68 100 -215 203 -335 235 -45 12 -271 13
-355 1z"/>
</g>
</svg>
